<svg xmlns="http://www.w3.org/2000/svg" width="800" height="840" viewBox="0 0 800 840" role="img" aria-label="Ashwagandha product illustration">
  <defs>
    <linearGradient id="bg" x1="0" y1="0" x2="1" y2="1">
      <stop offset="0%" stop-color="#EFE6D6"/>
      <stop offset="100%" stop-color="#D7C7AE"/>
    </linearGradient>
    <linearGradient id="bottle" x1="0" y1="0" x2="0" y2="1">
      <stop offset="0%" stop-color="#F7F1E6"/>
      <stop offset="100%" stop-color="#E4D5BC"/>
    </linearGradient>
  </defs>
  <rect width="800" height="840" fill="url(#bg)"/>
  <circle cx="640" cy="160" r="90" fill="#C97845" opacity="0.18"/>
  <circle cx="140" cy="680" r="120" fill="#2F5D3A" opacity="0.12"/>
  <ellipse cx="400" cy="720" rx="180" ry="28" fill="#1C2A22" opacity="0.08"/>
  <rect x="290" y="210" width="220" height="380" rx="28" fill="url(#bottle)" stroke="#2F5D3A" stroke-width="3"/>
  <rect x="330" y="170" width="140" height="55" rx="12" fill="#1F3F28"/>
  <rect x="320" y="280" width="160" height="160" rx="16" fill="#2F5D3A"/>
  <text x="400" y="340" text-anchor="middle" fill="#F7F3EA" font-family="Georgia, serif" font-size="22">Kerala</text>
  <text x="400" y="368" text-anchor="middle" fill="#F7F3EA" font-family="Georgia, serif" font-size="22">Ayurveda</text>
  <text x="400" y="405" text-anchor="middle" fill="#E7DFD0" font-family="Arial, sans-serif" font-size="14">ASHWAGANDHA</text>
  <path d="M170 430 C210 360, 250 360, 270 430 C250 400, 210 400, 170 430Z" fill="#2F5D3A" opacity="0.55"/>
  <path d="M530 250 C580 180, 640 190, 660 270 C620 230, 570 230, 530 250Z" fill="#2F5D3A" opacity="0.4"/>
  <circle cx="250" cy="500" r="10" fill="#B56A3C"/>
  <circle cx="560" cy="560" r="8" fill="#B56A3C"/>
</svg>
